# xmcd
#
# Track frame offsets:
#  150
#  11165
#  22887
#  32562
#  44865
#  56047
#  64997
#  77047
#  90272
#  102625
#  117120
#  128020
#  139850
#  154870
#  166517
#  182140
#  193650
#  208750
#  226475
#  240055
#
# Disc length: 3328 seconds
#
# Revision: 3
# Processed by: cddbd v1.5.2PL0 Copyright (c) Steve Scherf et al.
# Submitted via: AltoMP3_Maker 3.0
#
DISCID=080cfe14
DTITLE=Jerry Lee Lewis - Killer Country
DYEAR=1900
DGENRE=
TTITLE0=Another Place, Another Time
TTITLE1=What's Made Milwaukee Famous
TTITLE2=Walking The Floor Over You
TTITLE3=The Hole He Said He'd Dig For Me
TTITLE4=She Still Comes Around
TTITLE5=Waitin' For A Train
TTITLE6=She Even Woke Me Up To Say Goodbye
TTITLE7=Workin' Man Blues
TTITLE8=There Must Be More To Love Than This
TTITLE9=Me And Bobby McGee
TTITLE10=Once More With Feeling
TTITLE11=Touching Home
TTITLE12=Jack Daniels Old No.7
TTITLE13=Think About It, Darlin'
TTITLE14=Pee Wee's Place
TTITLE15=He Can't Fill My Shoes
TTITLE16=Who's Gonna Play This Old Piano?
TTITLE17=Middle Age Crazy
TTITLE18=You're All Too Ugly Tonight
TTITLE19=A Damn Good Country Song
EXTD=
EXTT0=
EXTT1=
EXTT2=
EXTT3=
EXTT4=
EXTT5=
EXTT6=
EXTT7=
EXTT8=
EXTT9=
EXTT10=
EXTT11=
EXTT12=
EXTT13=
EXTT14=
EXTT15=
EXTT16=
EXTT17=
EXTT18=
EXTT19=
PLAYORDER=
